<?xml version="1.0" standalone="no"?>
<!DOCTYPE svg PUBLIC "-//W3C//DTD SVG 20010904//EN"
 "http://www.w3.org/TR/2001/REC-SVG-20010904/DTD/svg10.dtd">
<svg version="1.0" xmlns="http://www.w3.org/2000/svg"
 width="418.000000pt" height="427.000000pt" viewBox="0 0 418.000000 427.000000"
 preserveAspectRatio="xMidYMid meet">

<g transform="translate(0.000000,427.000000) scale(0.100000,-0.100000)"
fill="#000000" stroke="none">
<path d="M690 3755 l0 -365 110 0 110 0 0 365 0 365 -110 0 -110 0 0 -365z"/>
<path d="M2630 3750 l0 -360 110 0 110 0 0 360 0 360 -110 0 -110 0 0 -360z"/>
<path d="M542 2773 c-36 -17 -62 -58 -62 -95 0 -40 36 -86 76 -97 71 -20 134
28 134 102 0 31 -7 46 -34 73 -38 38 -64 42 -114 17z"/>
<path d="M950 2779 c-48 -19 -70 -49 -70 -94 0 -80 73 -131 143 -101 42 17 57
41 57 91 0 47 -22 88 -55 103 -30 14 -41 14 -75 1z"/>
<path d="M1333 2775 c-33 -14 -63 -59 -63 -95 0 -37 30 -81 67 -96 66 -28 143
21 143 92 0 46 -19 83 -51 100 -34 17 -55 17 -96 -1z"/>
<path d="M1731 2774 c-46 -19 -60 -41 -61 -91 0 -79 72 -129 145 -99 40 17 55
42 55 91 0 51 -24 91 -61 104 -39 13 -36 14 -78 -5z"/>
<path d="M2124 2776 c-86 -38 -84 -156 3 -192 66 -28 143 21 143 92 0 46 -19
83 -51 100 -34 17 -55 17 -95 0z"/>
<path d="M2525 2776 c-78 -34 -92 -122 -29 -178 36 -31 102 -28 138 8 48 49
28 151 -35 173 -39 13 -37 13 -74 -3z"/>
<path d="M2914 2776 c-63 -28 -82 -92 -44 -153 34 -57 121 -61 168 -8 53 62 3
176 -76 175 -9 -1 -31 -7 -48 -14z"/>
<path d="M533 2430 c-54 -33 -66 -75 -38 -135 45 -92 195 -62 195 40 0 95 -79
143 -157 95z"/>
<path d="M940 2439 c-39 -15 -60 -49 -60 -97 0 -61 41 -102 100 -102 35 0 48
6 77 35 32 32 35 39 30 78 -10 75 -76 114 -147 86z"/>
<path d="M1323 2430 c-54 -33 -66 -75 -37 -135 43 -91 194 -59 194 40 0 47
-19 84 -51 101 -38 19 -68 18 -106 -6z"/>
<path d="M1718 2434 c-36 -19 -48 -43 -48 -94 0 -91 102 -133 172 -71 28 25
33 36 33 76 0 40 -5 51 -33 76 -36 33 -80 37 -124 13z"/>
<path d="M2113 2430 c-38 -23 -53 -48 -53 -90 0 -44 56 -100 99 -100 39 0 87
24 101 49 25 48 4 123 -41 147 -38 19 -68 18 -106 -6z"/>
<path d="M2508 2434 c-36 -19 -48 -43 -48 -94 0 -89 100 -133 169 -74 98 82
-8 230 -121 168z"/>
<path d="M2903 2430 c-53 -32 -68 -83 -39 -139 34 -65 151 -66 186 -2 25 48 4
123 -41 147 -38 19 -68 18 -106 -6z"/>
<path d="M2924 2104 c-21 -8 -40 -14 -41 -14 -1 0 -10 -14 -19 -32 -45 -87 36
-179 131 -148 44 14 65 44 65 90 0 81 -63 129 -136 104z"/>
<path d="M535 2098 c-85 -48 -49 -198 47 -198 36 0 84 24 98 49 5 11 10 38 10
61 0 78 -86 127 -155 88z"/>
<path d="M909 2081 c-81 -81 18 -219 119 -167 39 20 52 44 52 95 0 28 -8 48
-26 70 -22 26 -33 31 -71 31 -36 0 -50 -6 -74 -29z"/>
<path d="M1321 2096 c-51 -28 -64 -89 -31 -144 36 -59 117 -66 167 -16 22 22
25 32 20 77 -3 39 -11 56 -31 74 -31 26 -87 30 -125 9z"/>
<path d="M1699 2081 c-43 -43 -41 -101 5 -147 40 -40 75 -44 124 -14 38 24 56
62 47 106 -15 83 -117 114 -176 55z"/>
<path d="M2111 2096 c-51 -28 -64 -89 -31 -144 36 -59 117 -66 167 -16 22 22
25 32 20 77 -3 39 -11 56 -31 74 -31 26 -87 30 -125 9z"/>
<path d="M2501 2094 c-28 -20 -53 -76 -45 -101 14 -42 30 -66 56 -79 107 -55
206 85 120 171 -30 30 -94 34 -131 9z"/>
<path d="M2810 1875 c-36 -8 -101 -32 -145 -54 -44 -22 -96 -42 -117 -46 -45
-9 -74 -35 -86 -78 -5 -18 -26 -55 -45 -80 -91 -120 -131 -255 -125 -422 8
-181 65 -311 193 -440 127 -127 259 -185 436 -193 206 -9 363 51 505 193 68
67 90 98 127 176 54 111 70 181 69 304 -3 285 -182 528 -457 620 -100 34 -255
43 -355 20z m310 -31 c125 -32 252 -114 338 -217 164 -200 188 -506 55 -725
-86 -141 -196 -231 -352 -286 -77 -27 -98 -30 -201 -30 -127 0 -191 14 -294
66 -155 77 -263 203 -322 373 -24 69 -28 95 -28 195 0 192 53 320 188 455 169
168 385 227 616 169z"/>
<path d="M2698 1543 c-3 -41 -12 -69 -31 -97 -22 -32 -27 -50 -27 -100 1 -120
33 -191 86 -191 18 0 36 -9 48 -24 15 -18 26 -22 52 -18 22 4 37 1 45 -9 6 -8
24 -14 40 -14 l29 0 0 -110 c0 -104 2 -112 24 -135 32 -32 69 -40 107 -25 52
22 59 50 59 233 l0 164 53 -53 c29 -29 64 -55 79 -59 57 -14 110 40 94 96 -3
13 -40 64 -81 114 -81 96 -129 180 -140 245 -5 30 -11 40 -26 40 -26 0 -25
-36 5 -109 28 -69 67 -129 148 -226 60 -71 68 -98 36 -119 -35 -22 -130 72
-159 158 -10 28 -25 52 -33 54 -14 3 -16 -22 -16 -222 0 -123 -4 -236 -9 -249
-13 -33 -46 -43 -76 -23 l-25 16 0 181 c0 153 -2 181 -15 186 -22 8 -26 2 -32
-61 -5 -44 -9 -56 -22 -54 -17 3 -28 36 -30 86 -1 25 -5 32 -21 32 -16 0 -20
-7 -20 -34 0 -44 -9 -66 -25 -66 -16 0 -21 16 -30 93 -5 47 -10 58 -23 55 -12
-2 -19 -17 -22 -50 -3 -26 -9 -50 -12 -53 -16 -16 -40 49 -45 119 -5 70 -4 79
21 116 21 33 26 51 26 105 0 49 -3 65 -14 65 -9 0 -15 -17 -18 -57z"/>
<path d="M550 1773 c-81 -30 -90 -157 -14 -192 86 -39 164 19 154 114 -5 51
-88 97 -140 78z"/>
<path d="M953 1773 c-12 -2 -33 -16 -47 -30 -35 -34 -36 -100 -3 -138 47 -55
150 -40 177 25 33 80 -39 161 -127 143z"/>
<path d="M1340 1773 c-79 -29 -91 -151 -19 -188 78 -41 159 4 159 87 0 49 -22
78 -73 97 -30 12 -44 13 -67 4z"/>
<path d="M2135 1773 c-55 -13 -88 -86 -65 -143 16 -39 51 -60 100 -60 105 0
142 143 50 190 -24 12 -63 18 -85 13z"/>
<path d="M1701 1744 c-26 -22 -31 -33 -31 -71 0 -84 81 -129 160 -88 57 29 61
132 7 170 -35 24 -100 19 -136 -11z"/>
<path d="M533 1428 c-26 -13 -53 -65 -53 -103 0 -18 12 -39 35 -62 33 -33 39
-35 82 -30 61 7 93 41 93 98 0 51 -13 75 -50 94 -33 17 -75 18 -107 3z"/>
<path d="M928 1424 c-35 -19 -48 -43 -48 -93 0 -57 32 -91 91 -98 38 -4 50 -1
77 22 100 84 -5 232 -120 169z"/>
<path d="M1319 1425 c-28 -15 -49 -60 -49 -102 0 -37 60 -93 100 -93 64 0 109
43 110 103 0 49 -13 73 -50 92 -36 19 -77 19 -111 0z"/>
<path d="M1705 1407 c-35 -29 -45 -96 -21 -133 22 -33 79 -57 117 -49 76 17
105 120 50 176 -38 38 -106 41 -146 6z"/>
<path d="M2085 1407 c-20 -16 -28 -35 -32 -68 -5 -41 -2 -50 25 -80 26 -29 37
-34 77 -34 40 0 51 5 76 33 48 53 38 126 -21 157 -43 22 -94 19 -125 -8z"/>
<path d="M3832 1212 c-7 -5 -17 -24 -22 -43 -12 -40 -13 -136 -2 -143 4 -2 46
-9 92 -15 47 -6 99 -13 116 -16 23 -4 37 1 60 21 16 15 24 24 17 20 -6 -3 -14
2 -16 11 -4 14 -5 13 -6 -4 0 -12 -6 -25 -12 -29 -14 -8 -238 17 -245 28 -3 4
-2 40 2 78 6 65 8 70 30 70 13 0 28 -8 34 -17 8 -12 10 -13 7 -3 -2 8 -14 21
-28 27 -24 13 -24 13 9 13 l33 0 -2 -55 c-2 -56 -14 -74 -22 -32 -4 19 -4 18
-6 -5 -1 -22 4 -28 18 -28 15 0 21 8 23 32 2 25 9 34 28 39 21 6 22 7 5 9 -15
2 -12 4 10 10 l30 8 -28 1 c-18 1 -30 -5 -35 -16 -5 -14 -8 -12 -12 12 -4 25
-10 30 -35 33 -17 1 -36 -2 -43 -6z"/>
<path d="M4026 1184 c-9 -8 -17 -30 -17 -47 -2 -30 -2 -30 -9 8 l-7 40 -2 -42
c-1 -31 3 -43 13 -43 15 0 26 21 26 51 0 14 7 19 24 19 23 0 25 -5 29 -52 l4
-53 -1 55 c-1 50 -3 55 -25 58 -19 3 -21 6 -10 13 9 5 10 9 2 9 -6 0 -19 -7
-27 -16z"/>
<path d="M4088 1193 c7 -3 16 -2 19 1 4 3 -2 6 -13 5 -11 0 -14 -3 -6 -6z"/>
<path d="M4112 1155 c0 -16 2 -22 5 -12 2 9 2 23 0 30 -3 6 -5 -1 -5 -18z"/>
<path d="M3971 1134 c0 -11 3 -14 6 -6 3 7 2 16 -1 19 -3 4 -6 -2 -5 -13z"/>
<path d="M3960 1098 c0 -14 8 -18 33 -17 27 2 28 2 7 6 -14 3 -28 10 -32 17
-5 7 -8 5 -8 -6z"/>
<path d="M4102 1080 c0 -19 2 -27 5 -17 2 9 2 25 0 35 -3 9 -5 1 -5 -18z"/>
<path d="M3791 975 c-32 -28 -66 -113 -58 -146 3 -12 0 -19 -8 -19 -16 0 -78
-77 -97 -121 -7 -16 -19 -29 -26 -29 -19 0 -64 -52 -58 -67 4 -8 -3 -13 -18
-13 -23 0 -66 -37 -66 -58 0 -7 -9 -12 -20 -12 -30 0 -143 -65 -156 -88 -8
-16 -6 -41 10 -102 12 -44 22 -76 24 -71 2 5 -4 35 -12 66 -14 53 -13 56 4 50
10 -3 21 -1 25 5 3 5 11 10 17 10 6 0 5 -7 -3 -17 -8 -9 -9 -14 -2 -10 7 5 28
-22 57 -73 26 -44 51 -80 56 -80 13 0 60 41 60 52 0 4 -9 -1 -21 -13 -11 -11
-27 -19 -36 -17 -8 2 -33 37 -54 78 -47 89 -54 97 -71 82 -9 -7 -17 -7 -28 1
-28 22 -15 41 53 81 58 33 69 37 84 25 11 -10 14 -10 9 -1 -4 6 -2 12 4 12 6
0 16 -12 22 -26 11 -23 9 -28 -12 -46 -22 -17 -23 -18 -3 -9 12 6 26 18 30 26
7 12 24 0 78 -55 77 -77 107 -87 141 -47 19 22 19 22 -2 4 -11 -9 -29 -17 -40
-17 -11 0 -59 40 -114 95 -93 93 -94 94 -75 115 23 26 33 25 64 -2 l26 -23
-19 23 c-31 36 -13 34 27 -4 36 -34 43 -69 9 -42 -15 12 -16 11 -3 -5 13 -17
15 -17 33 0 19 17 19 18 -19 53 -21 19 -38 38 -38 42 0 3 -3 10 -8 14 -10 10
41 54 64 54 9 0 28 -13 42 -29 14 -17 27 -27 30 -25 5 5 64 -32 77 -47 12 -15
67 -35 87 -31 12 2 27 11 34 20 11 14 11 15 -1 5 -18 -17 -33 -17 -24 0 6 10
4 10 -7 0 -22 -21 -37 -16 -115 43 -42 30 -82 58 -90 61 -24 9 -16 43 22 94
36 50 48 56 73 40 12 -8 10 -16 -12 -49 -23 -35 -24 -42 -11 -53 12 -10 17 -8
29 7 8 10 15 22 15 25 0 4 12 10 26 13 31 8 57 -10 51 -36 -3 -10 -1 -16 4
-12 26 16 -6 63 -43 64 -20 0 -22 8 -9 29 7 11 22 8 84 -13 82 -28 107 -32
107 -15 0 5 -4 8 -9 4 -9 -5 -201 56 -230 74 -18 12 11 113 42 142 28 27 93
21 119 -11 10 -12 18 -18 18 -13 0 13 -29 37 -63 51 -38 16 -41 16 -76 -13z
m-16 -189 c18 -13 17 -15 -10 -59 -16 -25 -33 -43 -37 -41 -4 3 4 23 19 46 26
39 27 41 8 54 -10 8 -14 14 -9 14 6 0 19 -6 29 -14z"/>
<path d="M3899 989 c14 -5 30 -13 36 -17 6 -4 2 1 -8 11 -11 9 -27 17 -36 16
-10 0 -7 -4 8 -10z"/>
<path d="M3995 942 c-17 -8 -33 -19 -36 -25 -4 -5 -12 -6 -18 -3 -6 4 -11 0
-11 -9 0 -14 5 -14 35 5 29 18 38 20 50 10 23 -19 18 -46 -12 -68 -26 -19 -27
-20 -5 -26 15 -5 22 -16 23 -34 2 -26 2 -26 6 -3 3 16 -1 29 -12 37 -15 11
-15 13 3 18 52 17 66 77 24 102 -14 9 -25 8 -47 -4z m65 -42 c0 -10 -6 -23
-14 -29 -11 -9 -12 -7 -9 13 3 13 0 27 -6 30 -6 4 -11 14 -11 23 0 14 3 14 20
-2 11 -10 20 -26 20 -35z"/>
<path d="M3840 891 c6 -12 16 -21 23 -22 7 0 3 -4 -7 -8 -18 -7 -18 -8 -2 -14
11 -4 19 -1 23 10 8 20 -9 47 -31 51 -15 3 -16 1 -6 -17z"/>
<path d="M3810 870 c0 -5 5 -10 11 -10 5 0 7 5 4 10 -3 6 -8 10 -11 10 -2 0
-4 -4 -4 -10z"/>
<path d="M3950 821 c0 -5 9 -11 21 -14 16 -4 18 -3 8 9 -13 16 -29 19 -29 5z"/>
<path d="M3991 774 c0 -11 3 -14 6 -6 3 7 2 16 -1 19 -3 4 -6 -2 -5 -13z"/>
<path d="M2155 687 c-67 -36 -126 -75 -137 -92 -16 -21 -7 -62 17 -85 25 -23
26 -24 55 -7 30 18 45 11 29 -13 -12 -20 -11 -40 2 -40 5 0 7 5 4 11 -4 6 3
21 15 34 16 17 18 25 9 30 -8 5 -10 4 -5 -3 4 -7 3 -12 -3 -12 -5 0 -13 5 -16
10 -4 7 -17 4 -35 -7 -28 -16 -30 -16 -49 1 -26 23 -24 65 4 88 30 26 156 95
187 103 20 5 36 1 58 -15 37 -26 40 -68 8 -113 -14 -20 -16 -27 -6 -19 10 8
19 9 22 4 5 -9 -21 -27 -36 -24 -3 1 -12 -6 -20 -16 -12 -15 -11 -16 5 -3 26
20 21 3 -12 -38 -16 -20 -28 -39 -27 -43 0 -3 -3 -10 -8 -15 -6 -5 -6 -2 -1 7
5 10 1 8 -13 -4 -22 -19 -30 -32 -14 -22 5 3 9 -9 10 -27 1 -32 31 -67 57 -67
12 0 36 24 50 50 4 8 -4 2 -18 -15 -22 -27 -27 -28 -51 -17 -14 6 -26 16 -26
22 0 7 6 8 19 0 11 -5 26 -10 33 -10 7 1 -2 7 -19 15 -18 8 -33 18 -33 24 0 5
29 48 65 96 36 48 65 91 65 96 0 12 38 2 69 -17 84 -53 95 -130 23 -168 -15
-9 -21 -15 -14 -16 8 0 27 13 43 29 33 33 35 32 14 -9 -8 -16 -24 -32 -36 -35
-11 -4 -18 -9 -16 -12 3 -2 15 0 26 7 26 13 26 14 -3 -63 -23 -61 -23 -80 -1
-84 6 -1 19 -4 30 -8 11 -3 8 1 -7 10 -16 8 -28 19 -28 23 0 11 78 213 85 220
9 9 97 -17 125 -37 39 -28 39 -83 1 -121 -16 -17 -26 -30 -21 -30 12 0 57 56
65 80 12 38 -25 82 -90 107 -70 27 -69 27 -89 8 -13 -13 -15 -12 -21 15 -10
48 -108 127 -145 117 -15 -4 -17 1 -13 33 5 33 1 42 -27 69 -43 40 -78 40
-155 -2z m170 -107 c3 -5 1 -10 -4 -10 -6 0 -11 5 -11 10 0 6 2 10 4 10 3 0 8
-4 11 -10z"/>
<path d="M3817 691 c-4 -17 -3 -21 5 -13 5 5 8 16 6 23 -3 8 -7 3 -11 -10z"/>
<path d="M3890 693 c-8 -4 -21 -15 -28 -25 -7 -10 -17 -16 -22 -13 -5 3 -11 1
-14 -4 -4 -5 -1 -13 5 -17 8 -5 8 -9 -1 -14 -7 -4 -8 -10 -3 -13 6 -4 20 12
32 33 25 44 32 47 56 24 15 -15 15 -18 -1 -41 -9 -14 -11 -22 -5 -19 6 4 16
16 21 26 8 15 6 24 -10 40 -15 15 -16 20 -6 20 21 0 48 -30 42 -47 -3 -8 -1
-11 4 -8 15 9 12 23 -10 45 -20 20 -33 23 -60 13z"/>
<path d="M3794 649 c-3 -6 -2 -15 3 -20 5 -5 9 -1 9 11 0 23 -2 24 -12 9z"/>
<path d="M2210 625 c-28 -16 -19 -20 11 -5 13 7 19 7 19 1 0 -14 -56 -42 -65
-33 -4 4 -1 -3 6 -16 l14 -23 28 31 c25 29 36 60 20 60 -5 -1 -19 -7 -33 -15z"/>
<path d="M3640 605 c19 -19 36 -35 39 -35 3 0 -10 16 -29 35 -19 19 -36 35
-39 35 -3 0 10 -16 29 -35z"/>
<path d="M3909 573 c-13 -16 -12 -17 4 -4 16 13 21 21 13 21 -2 0 -10 -8 -17
-17z"/>
<path d="M3755 520 c33 -36 62 -64 65 -62 2 1 -25 31 -60 65 l-64 62 59 -65z"/>
<path d="M2087 545 c-15 -14 -24 -25 -19 -25 5 0 17 9 27 20 15 16 21 18 34 7
14 -11 14 -10 2 6 -7 9 -14 17 -15 17 0 0 -14 -12 -29 -25z"/>
<path d="M3740 501 c0 -10 19 -25 25 -20 1 2 -3 10 -11 17 -8 7 -14 8 -14 3z"/>
<path d="M2365 491 c-3 -6 0 -8 8 -5 20 7 32 -15 17 -29 -10 -9 -11 -9 -5 3 8
13 7 13 -8 1 -21 -16 -22 -31 -3 -31 23 0 41 29 30 48 -13 20 -30 26 -39 13z"/>
<path d="M2201 456 l-24 -31 28 27 c16 15 27 29 24 31 -2 3 -15 -10 -28 -27z"/>
<path d="M2345 459 c-4 -6 -5 -12 -2 -15 2 -3 7 2 10 11 7 17 1 20 -8 4z"/>
<path d="M3442 444 l-23 -22 31 -61 c16 -34 33 -61 35 -61 3 0 -8 27 -25 61
l-31 60 23 19 c13 10 21 20 18 22 -3 2 -15 -6 -28 -18z"/>
<path d="M3774 450 c0 -13 4 -16 10 -10 7 7 7 13 0 20 -6 6 -10 3 -10 -10z"/>
<path d="M3651 447 c-8 -10 -4 -20 19 -42 16 -15 27 -33 23 -38 -4 -6 -1 -7 6
-2 9 5 4 16 -18 39 -24 25 -28 35 -19 44 7 7 9 12 6 12 -3 0 -11 -6 -17 -13z"/>
<path d="M3687 446 c-4 -10 -1 -13 9 -9 7 3 14 1 14 -5 0 -6 -6 -12 -12 -15
-7 -2 4 -7 26 -11 41 -8 61 -1 30 10 -10 4 -29 16 -40 26 -18 16 -22 17 -27 4z"/>
<path d="M3789 423 c-13 -16 -12 -17 4 -4 16 13 21 21 13 21 -2 0 -10 -8 -17
-17z"/>
<path d="M2125 410 c10 -11 20 -20 23 -20 3 0 -3 9 -13 20 -10 11 -20 20 -23
20 -3 0 3 -9 13 -20z"/>
<path d="M3210 413 c-26 -11 -39 -30 -33 -52 3 -13 1 -21 -6 -21 -7 0 -9 5 -5
12 4 6 3 8 -3 5 -6 -4 -13 0 -17 8 -8 22 -62 19 -86 -5 -18 -18 -20 -33 -20
-149 0 -78 -4 -131 -10 -134 -6 -3 -5 -4 2 -3 9 2 14 35 18 117 4 96 6 107 13
69 21 -120 55 -181 101 -179 19 1 19 2 -4 9 -14 5 -18 8 -9 9 34 2 42 27 25
78 -20 58 -20 58 2 42 9 -7 6 -1 -7 14 -14 15 -26 25 -28 24 -2 -2 6 -30 17
-63 24 -67 21 -79 -14 -86 -24 -5 -27 -1 -41 46 -8 28 -22 82 -30 121 -15 65
-15 70 1 82 26 19 57 16 72 -8 8 -12 19 -18 28 -15 8 3 14 -1 14 -10 0 -9 -5
-12 -12 -8 -9 5 -8 2 1 -10 21 -25 33 -5 20 32 -13 39 -8 57 21 65 17 4 24 -1
36 -26 l14 -32 -2 30 c-4 41 -21 52 -58 38z"/>
<path d="M2310 406 c0 -2 8 -10 18 -17 15 -13 16 -12 3 4 -13 16 -21 21 -21
13z"/>
<path d="M2281 377 c-13 -21 -12 -21 5 -5 10 10 16 20 13 22 -3 3 -11 -5 -18
-17z"/>
<path d="M2556 359 c-12 -29 -12 -35 0 -42 17 -10 54 9 54 27 0 7 -9 21 -20
31 -19 17 -20 17 -34 -16z m37 4 c2 -5 -4 -16 -15 -25 -17 -17 -18 -17 -18 0
0 27 22 44 33 25z"/>
<path d="M2754 374 c-18 -14 -18 -15 6 -7 53 17 101 9 127 -21 25 -29 47 -29
23 -1 -36 43 -119 59 -156 29z"/>
<path d="M2320 366 c0 -10 59 -36 77 -35 12 0 9 3 -8 8 -14 5 -35 14 -47 20
-12 6 -22 9 -22 7z"/>
<path d="M2943 363 c-7 -2 -13 -13 -13 -23 0 -10 -4 -22 -10 -25 -5 -3 -9 -30
-8 -58 l1 -52 7 55 7 55 1 -66 c2 -75 -16 -129 -50 -153 -12 -9 -18 -16 -12
-16 14 0 54 43 54 59 0 7 5 9 10 6 6 -3 10 -17 10 -30 0 -15 9 -29 21 -36 13
-7 19 -7 15 -1 -4 6 5 12 21 14 16 2 28 9 29 18 0 9 -1 10 -3 2 -3 -6 -20 -12
-39 -12 l-34 0 0 130 0 130 30 0 30 0 2 -82 2 -83 3 78 c3 57 7 76 16 70 7 -4
7 0 -2 10 -13 16 -60 22 -88 10z"/>
<path d="M2702 318 c-16 -35 -18 -55 -13 -106 6 -54 12 -67 42 -98 28 -28 46
-36 80 -39 l44 -4 -44 9 c-59 13 -63 20 -10 20 24 0 50 4 57 9 7 4 -11 6 -41
3 -45 -4 -57 -1 -81 19 -16 15 -29 38 -33 61 -7 49 4 124 23 142 8 8 10 17 5
20 -5 4 -18 -13 -29 -36z"/>
<path d="M3271 324 c0 -11 3 -14 6 -6 3 7 2 16 -1 19 -3 4 -6 -2 -5 -13z"/>
<path d="M2787 302 c-9 -10 -17 -23 -17 -28 0 -4 7 2 16 14 8 12 23 22 33 22
13 0 18 -10 20 -45 3 -70 -29 -112 -49 -62 -8 20 -9 21 -11 2 -1 -12 -5 -5 -9
15 l-7 35 -2 -31 c-2 -49 42 -73 74 -40 19 18 30 83 17 99 -6 6 -10 17 -9 22
3 18 -39 16 -56 -3z"/>
<path d="M3521 286 c19 -33 20 -42 9 -60 -11 -20 -11 -20 5 -5 19 19 15 42
-16 79 -19 23 -19 21 2 -14z"/>
<path d="M3286 270 c2 -19 7 -52 11 -74 4 -27 2 -41 -8 -48 -12 -8 -11 -9 1
-5 21 5 23 42 5 107 -8 30 -12 39 -9 20z"/>
<path d="M3206 281 c-3 -5 1 -14 8 -20 12 -10 13 -8 9 8 -6 23 -9 25 -17 12z"/>
<path d="M2520 271 c0 -5 -3 -18 -6 -28 -4 -14 -2 -13 8 3 7 12 20 19 28 17
13 -4 13 -3 0 6 -19 13 -30 14 -30 2z"/>
<path d="M2578 253 c6 -2 18 -2 25 0 6 3 1 5 -13 5 -14 0 -19 -2 -12 -5z"/>
<path d="M2646 245 c-11 -8 -15 -15 -9 -15 6 0 16 7 23 15 16 19 11 19 -14 0z"/>
<path d="M2791 244 c0 -11 3 -14 6 -6 3 7 2 16 -1 19 -3 4 -6 -2 -5 -13z"/>
<path d="M2534 239 c-9 -15 -2 -18 20 -9 17 6 18 7 3 13 -9 3 -19 2 -23 -4z"/>
<path d="M2588 223 c6 -2 18 -2 25 0 6 3 1 5 -13 5 -14 0 -19 -2 -12 -5z"/>
<path d="M3322 210 c0 -14 2 -19 5 -12 2 6 2 18 0 25 -3 6 -5 1 -5 -13z"/>
<path d="M2520 202 c0 -6 -7 -18 -16 -26 -8 -9 -11 -16 -5 -16 13 0 35 39 27
48 -3 3 -6 0 -6 -6z"/>
<path d="M2888 162 l-17 -37 19 24 c11 13 20 29 20 37 0 21 -3 17 -22 -24z"/>
<path d="M3187 180 c3 -11 8 -20 12 -20 11 0 9 -55 -2 -63 -8 -6 -7 -7 3 -4 9
2 14 14 13 30 l-2 27 29 -21 c15 -12 34 -19 42 -16 9 4 7 6 -5 6 -10 1 -15 6
-12 11 3 6 -1 10 -9 10 -8 0 -24 14 -36 30 -24 34 -41 39 -33 10z"/>
<path d="M3331 158 c-1 -16 -8 -28 -18 -31 -17 -4 -17 -5 0 -6 20 -1 31 19 24
46 -3 12 -5 9 -6 -9z"/>
</g>
</svg>
